<svg xmlns="http://www.w3.org/2000/svg" viewBox="0 0 1031.98 545.56"><defs><style>.cls-1{fill:red;}</style></defs><g id="Laag_2" data-name="Laag 2"><g id="Laag_1-2" data-name="Laag 1"><path class="cls-1" d="M929.49,242.28l30.11,42.35L944,297.28C876.67,352,813.31,394.19,750.34,426.33c-58.49,29.86-116.93,51.09-178.67,64.92C455,517.39,337.83,514.36,202.21,510.86c-34.65-1-63.46-1.64-87.33-2.05l-.43,32.32c31.69.57,59.18,1.21,86.92,2,285.88,7.38,474.79,12.25,759.34-217.82L978.41,311l26.2,36.89L1032,250.27Z"/><path d="M693.12,269.48c-.21-2.85-.77-5.67-1.26-8.48-2.55-14.81-8.45-27.83-20.19-37.71-1.69-1.42-3.5-2.69-5.26-4,.06-.2.13-.41.2-.61H688.3v-50.4c-1.08-.06-1.95-.16-2.82-.16q-44.87,0-89.72,0c-14.23,0-28.36,1.1-42.13,4.92-21.93,6.09-36.85,19.53-43.22,41.71-3.84,13.38-4.74,27.09-4.11,41,.93,19.86,5.82,38.57,16,55.69,3.47,5.81,7.81,11.12,11.95,16.92l30.75-30c-1.6-1.32-3.08-2.33-4.33-3.59a57.09,57.09,0,0,1-15.26-25.83c-3.38-12.82-3.28-25.39,4.5-36.86,6-8.84,14.48-13.16,25.56-13.35,0,1.54-.06,2.82,0,4.08.65,14.46.94,29,2.11,43.37,1.19,14.69,4.48,29,11,42.36C600.2,332,620.17,341.55,645,338.78c22.57-2.52,36.48-16.06,43.75-36.83A89.5,89.5,0,0,0,693.12,282,70.86,70.86,0,0,0,693.12,269.48Zm-40.81,6.08c-7,13.81-23.65,14.92-32.51,2.07A44.46,44.46,0,0,1,612.26,256c-1-11.83-1.26-23.71-1.81-35.58a7.07,7.07,0,0,1,.32-1.59c10.86-.26,21.75-1.29,30.86,6.55,7.85,6.76,11.7,15.62,13.31,25.53C656.3,259.27,656.31,267.64,652.31,275.56ZM477.79,238.35c-1.83-20.82-7.58-40.5-18.08-58.6-13.92-24-33.51-41.28-60.45-49.38-18-5.4-36.26-5.22-54.5-2-17.78,3.18-33.73,10.22-46,24-1.46,1.65-2.87,3.33-4.31,5l-.75-.25V4.16c0-1.39-.11-2.77-.16-4.16H220.17c0,1.39.06,2.78.06,4.17V369.43h67.64V338.68c.35-.23.7-.46,1.06-.68a9.39,9.39,0,0,0,.86,1.87c12.41,16.47,29,26.76,48.59,32.39,5.57,1.6,11.41,2.25,17.13,3.35h14.31c4.3-.56,8.63-1,12.91-1.7,39.66-6.65,68.22-28,84.64-64.84C477.41,286.54,479.93,262.74,477.79,238.35ZM397.7,283.14c-9.3,16.93-24.19,25.42-43,27.5-11.7,1.29-23.18.19-34.12-4.47-13.86-5.92-23.5-16.06-28.46-30.25-6.78-19.39-6.32-38.65,3.19-57.08,8.54-16.55,23-24.9,41-27.47a67.19,67.19,0,0,1,33.14,3.1c19.41,7.16,30.26,21.64,34.31,41.51,1,4.92,1.18,10,1.73,15C405.25,262.34,403.17,273.19,397.7,283.14Zm-213.25-56c-4.52-22.19-15-41.25-33-55.24-26.11-20.22-55.69-24.35-86.72-15.05-33.93,10.17-53.27,34.6-61.6,68.3C1.57,231.27,1,237.61,0,243.84v14.91a14,14,0,0,1,.42,2,106.11,106.11,0,0,0,7.94,33.7c9.25,21.94,24.32,38.37,46.21,48.12a94.31,94.31,0,0,0,46.79,7.58c31.6-2.6,56-17.16,71.89-44.72C187.33,281,190,254.49,184.45,227.14ZM136.09,268c-4,11.83-12,20-23.64,24.26a52.59,52.59,0,0,1-38.4-.22c-16.56-6.51-24.33-19.6-25.53-36.84-.86-12.47,1.77-24.06,10.27-33.76,6.87-7.85,15.77-11.76,25.85-13.35,2.74-.42,5.52-.55,8.28-.83a53.19,53.19,0,0,1,22.82,4.84,37.85,37.85,0,0,1,20.88,24.6A51.24,51.24,0,0,1,136.09,268Zm4,186.19a34.08,34.08,0,0,1,3.17-14,32.3,32.3,0,0,1,8-10.59,34,34,0,0,1,11.7-6.62,42.64,42.64,0,0,1,28.29.71,34.08,34.08,0,0,1,11.35,7.19,32.45,32.45,0,0,1,7.44,11,36.57,36.57,0,0,1-.7,28.16,32.33,32.33,0,0,1-8,10.59,34,34,0,0,1-11.7,6.62,42.65,42.65,0,0,1-28.29-.71A34,34,0,0,1,150,479.3a32.45,32.45,0,0,1-7.44-11A34.2,34.2,0,0,1,140.07,454.17Zm20.1.5q-.18,7.38,3.93,12t11.75,4.85q7.64.19,12-4.26c2.89-3,4.39-6.91,4.52-11.82s-1.19-8.93-3.93-12-6.65-4.73-11.75-4.85-9.08,1.29-12,4.26S160.3,449.76,160.17,454.67Zm64.58-30.86,19.3.43-.19,8.85h.26a16.25,16.25,0,0,1,2.77-3.69,19.47,19.47,0,0,1,4.23-3.26,23.64,23.64,0,0,1,5.55-2.29,22.71,22.71,0,0,1,6.72-.79q7.65.17,12.28,2.62a17.84,17.84,0,0,1,7.17,6.66,26.3,26.3,0,0,1,3.33,9.87,74.22,74.22,0,0,1,.67,12.22l-.8,35.93-20.11-.45.71-31.91q.06-2.82-.07-5.83a18.44,18.44,0,0,0-1.08-5.59,8.67,8.67,0,0,0-8.93-6,12.42,12.42,0,0,0-6.33,1.27,9.65,9.65,0,0,0-3.77,3.67,15.43,15.43,0,0,0-1.79,5.26,46.28,46.28,0,0,0-.54,6.16l-.72,32.44L223.3,489Zm143.56,66.84-18.5,0v-8.59h-.27a21.64,21.64,0,0,1-3.15,3.56,23.41,23.41,0,0,1-4.55,3.29,28.56,28.56,0,0,1-5.77,2.42,22.86,22.86,0,0,1-6.5.94,33.63,33.63,0,0,1-13.14-2.47,29.08,29.08,0,0,1-10.13-7,31.15,31.15,0,0,1-6.52-10.65,39,39,0,0,1-2.29-13.54,41.27,41.27,0,0,1,2.07-13.08,36,36,0,0,1,5.9-11.07,28.61,28.61,0,0,1,9.31-7.71,26.46,26.46,0,0,1,12.47-2.9A34.7,34.7,0,0,1,339,425.84a18.7,18.7,0,0,1,8.92,6.63h.27l0-43.18h20.11Zm-18.53-32.57q0-7.36-4.23-11.93t-11.87-4.55q-7.65,0-11.87,4.57t-4.21,11.94q0,7.36,4.23,11.93t11.87,4.55q7.65,0,11.87-4.57T349.78,458.08Zm98.62,17.74A32,32,0,0,1,436.72,486a36.58,36.58,0,0,1-15.09,4.15,41,41,0,0,1-14.25-1.67,33.86,33.86,0,0,1-11.88-6.29,32.14,32.14,0,0,1-8.27-10.37,36.63,36.63,0,0,1-1.48-28.12,32.41,32.41,0,0,1,7.13-11.19A34,34,0,0,1,404,425a40.9,40.9,0,0,1,14-3.15,32,32,0,0,1,12.78,1.74,26.49,26.49,0,0,1,10,6.39,31.47,31.47,0,0,1,6.66,10.46,43.42,43.42,0,0,1,2.88,13.95l.33,6.29-46.6,2.45a15.91,15.91,0,0,0,5.71,8.9,14.81,14.81,0,0,0,10.09,2.9,15.11,15.11,0,0,0,8.25-2.66,22.4,22.4,0,0,0,5.66-6Zm-18.51-27.76a11.65,11.65,0,0,0-3.81-8.53,11.92,11.92,0,0,0-9.16-3.14,15.15,15.15,0,0,0-5.83,1.38,14.94,14.94,0,0,0-4.21,3,12.09,12.09,0,0,0-2.61,4,12.67,12.67,0,0,0-.89,4.67Zm30.45-27.56,20-2.4,1.25,10.38.27,0a24.71,24.71,0,0,1,6.5-9.9A19.36,19.36,0,0,1,499,414.22c1.16-.13,2.32-.23,3.48-.28a17.2,17.2,0,0,1,3.26.15L508,432.33a31.32,31.32,0,0,0-4.31-.5,28.37,28.37,0,0,0-4.37.19,21.44,21.44,0,0,0-8.86,2.69,12.11,12.11,0,0,0-4.59,5.07,17,17,0,0,0-1.5,7.14,66.93,66.93,0,0,0,.52,8.85l3.25,27-20,2.4Zm56-6.85,18.88-4,1.85,8.65.27-.06a16.18,16.18,0,0,1,1.83-4.23,19.62,19.62,0,0,1,3.37-4.15,24.15,24.15,0,0,1,4.87-3.51,23.17,23.17,0,0,1,6.36-2.32q7.47-1.59,12.55-.28a17.78,17.78,0,0,1,8.51,4.83,26.32,26.32,0,0,1,5.52,8.82,73.85,73.85,0,0,1,3.47,11.74l7.52,35.14-19.67,4.21L565,437.24q-.59-2.75-1.41-5.66a18.09,18.09,0,0,0-2.35-5.19,8.63,8.63,0,0,0-10.05-3.74,12.43,12.43,0,0,0-5.87,2.69,9.6,9.6,0,0,0-2.82,4.44,15.24,15.24,0,0,0-.53,5.54,45.49,45.49,0,0,0,.89,6.11l6.79,31.73L530,477.37Zm150.1,14.52A32,32,0,0,1,658,441.11a36.66,36.66,0,0,1-13.39,8.09,41.1,41.1,0,0,1-14.17,2.26,34.22,34.22,0,0,1-13.15-2.82,32.56,32.56,0,0,1-10.77-7.74,36.7,36.7,0,0,1-9.06-26.67,32.45,32.45,0,0,1,3.83-12.7,34.11,34.11,0,0,1,8.7-10.25,41.07,41.07,0,0,1,12.62-6.83,31.91,31.91,0,0,1,12.77-1.79,26.33,26.33,0,0,1,11.36,3.43,31.4,31.4,0,0,1,9.25,8.26A43.1,43.1,0,0,1,662.5,407l2,6-44.18,15a15.87,15.87,0,0,0,7.91,7,14.78,14.78,0,0,0,10.49,0,15.2,15.2,0,0,0,7.22-4.79,22.41,22.41,0,0,0,3.82-7.32Zm-25.35-21.7a11.66,11.66,0,0,0-6-7.17,11.91,11.91,0,0,0-9.67-.54,14.76,14.76,0,0,0-8.49,6.92,12.13,12.13,0,0,0-1.41,4.59A12.7,12.7,0,0,0,616,415Zm21.83-33.74L680.16,364l4,7.9.24-.12a16.38,16.38,0,0,1,.71-4.56,19.08,19.08,0,0,1,2.2-4.86,23.68,23.68,0,0,1,3.81-4.64,23.22,23.22,0,0,1,5.57-3.86,25.54,25.54,0,0,1,12.1-2.95,17.82,17.82,0,0,1,11.11,4.3,21.77,21.77,0,0,1,3.49-11.82,25.45,25.45,0,0,1,9.69-7.9,24.89,24.89,0,0,1,10.87-3,18.19,18.19,0,0,1,9.06,2.18,25.28,25.28,0,0,1,7.4,6.33,51.12,51.12,0,0,1,6,9.36l17.34,34.36-18,9.06-17.11-33.87a15,15,0,0,0-5.27-6.13q-3.21-2.06-7.64.18a13.41,13.41,0,0,0-4.7,3.65,9.68,9.68,0,0,0-1.93,4.5,13.33,13.33,0,0,0,.32,5.1,26.2,26.2,0,0,0,2,5.3L747,403.28l-18,9.07-15.53-30.77c-.53-1-1.21-2.29-2.06-3.77a17.06,17.06,0,0,0-3-3.88,9.14,9.14,0,0,0-4.09-2.29,7.68,7.68,0,0,0-5.45.95,12.38,12.38,0,0,0-5,4.09,9.55,9.55,0,0,0-1.6,5,15.09,15.09,0,0,0,.89,5.48,45.74,45.74,0,0,0,2.42,5.69l14.63,29-18,9.06Zm183.59-42.82a32,32,0,0,1-5,14.65,36.6,36.6,0,0,1-10.94,11.18,41,41,0,0,1-13.16,5.73A34,34,0,0,1,804,362a32.47,32.47,0,0,1-12.37-4.81,36.59,36.59,0,0,1-15.43-23.55,32.63,32.63,0,0,1,.53-13.26,34.09,34.09,0,0,1,5.87-12.09,41,41,0,0,1,10.51-9.77A32.15,32.15,0,0,1,805,293.61a26.33,26.33,0,0,1,11.86.49,31.44,31.44,0,0,1,11,5.68,43.75,43.75,0,0,1,9.51,10.6l3.45,5.28-39,25.57a16,16,0,0,0,9.41,4.82,14.86,14.86,0,0,0,10.17-2.58,15.1,15.1,0,0,0,5.8-6.44,22.64,22.64,0,0,0,1.87-8Zm-30-14.67a11.65,11.65,0,0,0-7.58-5.46,12,12,0,0,0-9.5,1.9A14.68,14.68,0,0,0,793,320.5a12.1,12.1,0,0,0-.23,4.79,13.07,13.07,0,0,0,1.58,4.5ZM831,274.82l15.37-11.69,5.36,7,.21-.16a16.16,16.16,0,0,1-.14-4.61,19.89,19.89,0,0,1,1.28-5.19A24.21,24.21,0,0,1,856,255a22.74,22.74,0,0,1,4.76-4.8q6.09-4.64,11.24-5.6a17.86,17.86,0,0,1,9.76.75,26.32,26.32,0,0,1,8.75,5.64,75.6,75.6,0,0,1,8.14,9.14l21.75,28.61-16,12.17-19.32-25.4q-1.69-2.24-3.69-4.52a18.45,18.45,0,0,0-4.33-3.7,9.7,9.7,0,0,0-5-1.44,9.59,9.59,0,0,0-5.72,2.33,12.38,12.38,0,0,0-4.17,4.94,9.62,9.62,0,0,0-.66,5.22,15.48,15.48,0,0,0,1.87,5.23,45,45,0,0,0,3.42,5.15l19.64,25.83-16,12.18Z"/></g></g></svg>